<?xml version="1.0" ?><svg height="256" viewBox="0 0 256 256" width="256" xmlns="http://www.w3.org/2000/svg"><title/><g id="examination-physical-statistic"><g><path d="M238.8,188.988c-3.1-1.34-18.85-7.93-25.11-5.59a56.685,56.685,0,0,0-13.15,7.34c-7.23-8.13-16.29-10.39-24.54-10.17V130.6l3.41-3.41a1.966,1.966,0,0,0,.59-1.41V104.234a1.966,1.966,0,0,0-.59-1.41L176,99.414V38a10.017,10.017,0,0,0-10-10H146V26a2.006,2.006,0,0,0-2-2H111.8a10.017,10.017,0,0,0-9.8-8H90a10.017,10.017,0,0,0-9.8,8H48a2.006,2.006,0,0,0-2,2v2H26A10.017,10.017,0,0,0,16,38V206.008a10.017,10.017,0,0,0,10,10H150.63c20.73,13.381,37.49,16.131,47.78,16.131A42.785,42.785,0,0,0,208.9,231c1.38,1.42,2.76,2.87,4.08,4.29,4.03,4.03,7.8,4.71,9.88,4.71a9.131,9.131,0,0,0,1.33-.1H238a2.006,2.006,0,0,0,2-2V190.828A2,2,0,0,0,238.8,188.988Zm-83.77-21.371c-5.27-9.22-6.68-24.041-6.69-24.181a1.57,1.57,0,0,0-.09-.43H160v40.722c-1.2.42-2.27.85-3.2,1.24C157.78,179.407,157.95,172.737,155.03,167.617Zm-29.78,32.391c.24,1.71.45,3.09.58,4H30a2.006,2.006,0,0,1-2-2V42a2.006,2.006,0,0,1,2-2H48.01a24.566,24.566,0,0,0,2.1,4A25.962,25.962,0,0,0,72,56h48a25.962,25.962,0,0,0,21.89-12,24.566,24.566,0,0,0,2.1-4H162a2.006,2.006,0,0,1,2,2V87.443a1.892,1.892,0,0,0-1.23-.44H141.23a1.966,1.966,0,0,0-1.41.59l-15.23,15.231a1.966,1.966,0,0,0-.59,1.41v21.541a1.966,1.966,0,0,0,.59,1.41l7.07,7.07c-1.32,4.54-6.89,23.881-8.41,32.621C121.97,174.3,124.04,191.358,125.25,200.008ZM90,32V28a2.006,2.006,0,0,1,2-2h8a2.006,2.006,0,0,1,2,2v4ZM236,235.9H224a2.413,2.413,0,0,0-.47.05c-.15.04-3.51.73-7.67-3.43-1.65-1.78-3.41-3.61-5.13-5.37-5.95-6.06-11.56-11.331-11.63-11.391a2,2,0,0,0-2.74,2.92c.07.05,4.23,3.95,9.17,8.9-7.15,1.08-27.07,1.87-53.51-15.441-1.04-.68-2.08-1.38-3.14-2.12a27.689,27.689,0,0,0-12.02-4.66,37.4,37.4,0,0,1-7.05-1.88c-.08-.5-.18-1.16-.29-1.95-1.09-7.45-3.61-26.531-2.33-33.961s5.78-23.391,7.71-30.071l4.92,4.92a1.966,1.966,0,0,0,1.41.59h3.23a1.726,1.726,0,0,0-.1.79c.06.64,1.49,15.821,7.2,25.811,2.99,5.24,1.88,12.981.5,18.371a55.084,55.084,0,0,1-2,6.25,1.989,1.989,0,0,0,1.08,2.61,1.886,1.886,0,0,0,.76.16,1.994,1.994,0,0,0,1.85-1.23,52.3,52.3,0,0,0,1.96-5.92c4.58-2.36,28.41-13.371,42.93,4.83.58.73,1.15,1.5,1.7,2.33a2.008,2.008,0,0,0,1.66.89,2,2,0,0,0,1.66-3.11c-.21-.31-.42-.61-.63-.91a52.734,52.734,0,0,1,12.06-6.73c3.47-1.3,14.17,2.2,20.91,5Z"/><path d="M188.72,210.029c-13.03,1.86-25.46-6.58-25.58-6.67a2,2,0,0,0-2.28,3.29c.5.35,11.21,7.65,23.95,7.65a30.915,30.915,0,0,0,4.47-.31,2,2,0,0,0-.56-3.96Z"/><path d="M126.23,63a2,2,0,0,0-2.73-.73c-3.91,2.24-10.09,5.89-15.92,9.73-3.74-1.31-8.5.02-12.23,1.63,1.82-4.13,1.81-6.73.1-8.31-1.79-1.65-5.23-2.39-17.18,4.62-6.15,3.61-11.71,7.61-11.94,7.78a2,2,0,1,0,2.34,3.24c10.62-7.67,21.73-13.531,24.02-12.7.08.41.16,2.47-3.9,9.14a2,2,0,0,0,2.79,2.72,33.349,33.349,0,0,1,10.67-4.46c-5.32,3.83-9.48,7.48-9.89,9.77a2.9,2.9,0,0,0,.6,2.41,6.464,6.464,0,0,0,5.17,2.18c3.2,0,6.93-1.59,9.88-3.98,4.5-3.65,5.7-8.16,3.09-11.511,4.51-2.94,9.56-6.02,14.4-8.8A2,2,0,0,0,126.23,63ZM105.49,82.933c-3.09,2.51-7.19,3.7-8.95,2.75,1.12-1.72,5.49-5.08,11.2-8.93a2,2,0,0,1,.19.22C109.76,79.283,106.22,82.343,105.49,82.933Z"/><circle cx="118" cy="86.003" r="2"/><rect height="16.001" rx="2" ry="2" width="60" x="56" y="160.006"/><rect height="16.001" rx="2" ry="2" width="52.28" x="56" y="104.004"/><rect height="16.001" rx="2" ry="2" width="42.62" x="56" y="132.005"/><path d="M49.3,166.207a5.143,5.143,0,0,0-1.45-.86l1.7-2.07a2,2,0,0,0-1.55-3.27H41a2,2,0,0,0,0,4h2.78l-1.33,1.63a2,2,0,0,0,1.87,3.24,3.7,3.7,0,0,1,2.38.38c.09.07.3.25.3.91a2.661,2.661,0,0,1-2.12,2.45c-.91.18-1.58-.27-2.03-1.37a2,2,0,1,0-3.7,1.52,5.719,5.719,0,0,0,5.32,3.89,5.96,5.96,0,0,0,1.18-.11,6.65,6.65,0,0,0,5.35-6.38A4.987,4.987,0,0,0,49.3,166.207Z"/><path d="M41.78,132.915a5.4,5.4,0,0,0-2.7,3.15,2,2,0,1,0,3.84,1.12,1.363,1.363,0,0,1,.57-.65,2.053,2.053,0,0,1,1.53.15c-.13,1.33-2.61,4.96-5.46,7.94a1.994,1.994,0,0,0,1.44,3.38h7a2,2,0,0,0,0-4H45.39c2.05-2.63,4.04-5.92,3.55-8.33a3.537,3.537,0,0,0-2.16-2.59A5.9,5.9,0,0,0,41.78,132.915Z"/><path d="M40.79,109.554l1.21-.52V118a2,2,0,1,0,4,0V106a2,2,0,0,0-2.79-1.84l-4,1.72a2,2,0,1,0,1.58,3.67Z"/></g></g></svg>