<svg height="511pt" viewBox="1 -56 511.99924 511" width="511pt" xmlns="http://www.w3.org/2000/svg"><path d="m388.484375 7.992188c-36.5.050781-69.023437 16.996093-90.222656 43.417968-3.425781 4.269532-9.9375 4.269532-13.363281 0-21.195313-26.421875-53.71875-43.367187-90.21875-43.417968-63.703126-.089844-115.90625 51.902343-116.023438 115.609374-.222656 120.136719 161.640625 237.953126 203.261719 266.261719 5.835937 3.96875 13.492187 3.96875 19.328125 0 41.621094-28.308593 203.480468-146.125 203.261718-266.261719-.121093-63.703124-52.320312-115.699218-116.023437-115.609374zm0 0" fill="#ff592a"/><path d="m203.039062 8.3125c2.929688 3.3125 7.800782 3.769531 11.265626 1.371094-3.695313-.640625-7.457032-1.09375-11.265626-1.371094zm0 0" fill="#f63511"/><path d="m397.007812 8.296875c15.808594 19.761719 25.308594 44.765625 25.359376 71.894531.21875 117.582032-154.804688 232.925782-200.425782 264.320313 25.539063 21.265625 47.859375 37.105469 59.976563 45.347656 5.835937 3.96875 13.492187 3.96875 19.328125 0 41.621094-28.308594 203.480468-146.121094 203.261718-266.257813-.113281-60.839843-47.730468-110.992187-107.5-115.304687zm0 0" fill="#f63511"/><path d="m218.835938 205.96875c-3.296876 0-6.207032-2.15625-7.167969-5.3125l-22.765625-74.78125h-68.1875c-4.140625 0-7.496094-3.355469-7.496094-7.496094 0-4.136718 3.355469-7.492187 7.496094-7.492187h73.738281c3.300781 0 6.210937 2.15625 7.171875 5.3125l17.210938 56.542969 25.140624-82.578126c.957032-3.15625 3.871094-5.3125 7.167969-5.3125s6.207031 2.15625 7.167969 5.3125l10.878906 35.738282h65.90625c4.136719 0 7.492188 3.355468 7.492188 7.496094 0 4.136718-3.355469 7.492187-7.492188 7.492187h-71.457031c-3.296875 0-6.210937-2.15625-7.167969-5.308594l-5.328125-17.503906-25.140625 82.578125c-.957031 3.15625-3.867187 5.3125-7.167968 5.3125zm0 0" fill="#ffc5b2"/><path d="m65.285156 246.960938h211.59375v46.375h-211.59375zm0 0" fill="#848489"/><path d="m233.792969 246.960938v11.589843c0 8.597657-6.972657 15.570313-15.570313 15.570313h-152.9375v19.214844h211.59375v-46.375zm0 0" fill="#545353"/><g fill="#848489"><path d="m288.363281 341.191406h-16.308593c-5.523438 0-10-4.476562-10-10v-121.34375c0-5.523437 4.476562-10 10-10h16.308593c5.523438 0 10 4.476563 10 10v121.34375c0 5.523438-4.476562 10-10 10zm0 0"/><path d="m324.671875 323.269531h-16.308594c-5.523437 0-10-4.476562-10-10v-85.503906c0-5.523437 4.476563-10 10-10h16.308594c5.523437 0 10 4.476563 10 10v85.503906c0 5.523438-4.476563 10-10 10zm0 0"/><path d="m53.804688 199.847656h16.308593c5.523438 0 10 4.476563 10 10v121.34375c0 5.523438-4.476562 10-10 10h-16.308593c-5.523438 0-10-4.476562-10-10v-121.34375c0-5.523437 4.476562-10 10-10zm0 0"/><path d="m17.492188 217.765625h16.3125c5.519531 0 10 4.476563 10 10v85.503906c0 5.523438-4.480469 10-10 10h-16.3125c-5.519532 0-10-4.476562-10-10v-85.503906c0-5.523437 4.480468-10 10-10zm0 0"/></g><path d="m288.070312 199.847656h-15.449218c5.6875 0 10.292968 4.609375 10.292968 10.292969v120.753906c0 5.6875-4.605468 10.296875-10.292968 10.296875h15.449218c5.683594 0 10.292969-4.609375 10.292969-10.296875v-120.753906c0-5.683594-4.609375-10.292969-10.292969-10.292969zm0 0" fill="#545353"/><path d="m324.378906 217.765625h-15.449218c5.6875 0 10.296874 4.609375 10.296874 10.296875v84.914062c0 5.683594-4.609374 10.292969-10.296874 10.292969h15.449218c5.683594 0 10.292969-4.609375 10.292969-10.292969v-84.914062c0-5.6875-4.609375-10.296875-10.292969-10.296875zm0 0" fill="#545353"/><path d="m69.816406 199.847656h-15.449218c5.6875 0 10.296874 4.609375 10.296874 10.292969v120.753906c0 5.6875-4.609374 10.296875-10.296874 10.296875h15.449218c5.6875 0 10.296875-4.609375 10.296875-10.296875v-120.753906c0-5.683594-4.609375-10.292969-10.296875-10.292969zm0 0" fill="#545353"/><path d="m33.507812 217.765625h-15.449218c5.6875 0 10.296875 4.609375 10.296875 10.296875v84.914062c0 5.683594-4.609375 10.292969-10.296875 10.292969h15.449218c5.683594 0 10.292969-4.609375 10.292969-10.292969v-84.914062c.003907-5.6875-4.605469-10.296875-10.292969-10.296875zm0 0" fill="#545353"/><path d="m218.835938 205.96875c-3.296876 0-6.207032-2.15625-7.167969-5.3125l-22.765625-74.78125h-68.1875c-4.140625 0-7.496094-3.355469-7.496094-7.496094 0-4.136718 3.355469-7.492187 7.496094-7.492187h73.738281c3.300781 0 6.210937 2.15625 7.171875 5.3125l17.210938 56.542969 25.140624-82.578126c.957032-3.15625 3.871094-5.3125 7.167969-5.3125s6.207031 2.15625 7.167969 5.3125l10.878906 35.738282h65.90625c4.136719 0 7.492188 3.355468 7.492188 7.496094 0 4.136718-3.355469 7.492187-7.492188 7.492187h-71.457031c-3.296875 0-6.210937-2.15625-7.167969-5.308594l-5.328125-17.503906-25.140625 82.578125c-.957031 3.15625-3.867187 5.3125-7.167968 5.3125zm0 0"/><path d="m496.191406 63.578125c-2.035156-3.609375-6.605468-4.882813-10.210937-2.847656-3.601563 2.03125-4.878907 6.601562-2.84375 10.207031 9.042969 16.039062 13.84375 34.253906 13.875 52.675781.09375 49.113281-28.128907 103.75-83.875 162.390625-45.386719 47.742188-96.316407 84.203125-116.105469 97.660156-3.308594 2.253907-7.585938 2.253907-10.898438 0-17.542968-11.929687-60.1875-42.375-101.488281-82.832031h69.917969v30.367188c0 9.640625 7.84375 17.484375 17.484375 17.484375h16.324219c9.644531 0 17.488281-7.84375 17.488281-17.484375v-.632813c.816406.117188 1.648437.199219 2.496094.199219h16.324219c9.640624 0 17.484374-7.84375 17.484374-17.484375v-85.523438c0-9.640624-7.84375-17.484374-17.484374-17.484374h-16.324219c-.847657 0-1.679688.082031-2.496094.203124v-.636718c0-9.640625-7.84375-17.484375-17.488281-17.484375h-16.324219c-9.640625 0-17.484375 7.84375-17.484375 17.484375v29.628906h-23.625c-4.140625 0-7.496094 3.355469-7.496094 7.492188 0 4.140624 3.355469 7.496093 7.496094 7.496093h23.625v31.390625h-166.957031v-31.390625h109.4375c4.140625 0 7.496093-3.355469 7.496093-7.496093 0-4.136719-3.355468-7.492188-7.496093-7.492188h-66.019531c-29.839844-41.277344-44.9375-80.242188-44.871094-115.851562.109375-59.65625 48.707031-108.128907 108.363281-108.128907h.152344c32.960937.042969 63.71875 14.847657 84.386719 40.613281 3.0625 3.820313 7.628906 6.007813 12.527343 6.007813 4.898438 0 9.464844-2.191406 12.527344-6.007813 20.667969-25.765624 51.425781-40.566406 84.386719-40.613281h.152344c27.699218 0 54.097656 10.546875 74.359374 29.710938 3.003907 2.84375 7.75 2.710937 10.59375-.292969 2.84375-3.007812 2.710938-7.75-.296874-10.59375-23.054688-21.8125-53.109376-33.8125-84.65625-33.8125-.054688 0-.117188 0-.175782 0-37.519531.050781-72.53125 16.898438-96.054687 46.226562-.425781.527344-1.25.527344-1.671875 0-23.523438-29.324218-58.535156-46.171874-96.054688-46.226562-.0625 0-.113281 0-.175781 0-67.902344 0-123.226563 55.183594-123.351563 123.089844-.066406 36.238281 13.90625 75.167968 41.554688 115.878906h-25.113281v-29.632812c0-9.640626-7.84375-17.484376-17.484375-17.484376h-16.328125c-9.640625 0-17.484375 7.84375-17.484375 17.484376v.636718c-.816406-.117187-1.648438-.199218-2.496094-.199218h-16.328125c-9.640625 0-17.484375 7.84375-17.484375 17.484374v85.519532c0 9.640625 7.84375 17.484375 17.484375 17.484375h16.328125c.847656 0 1.679688-.082031 2.496094-.199219v.636719c0 9.640625 7.84375 17.484375 17.484375 17.484375h16.328125c9.640625 0 17.484375-7.84375 17.484375-17.484375v-30.367188h75.894531c45.289062 46.617188 94.796875 82.027344 114.203125 95.226563 4.214844 2.867187 9.046875 4.300781 13.875 4.300781 4.832031 0 9.664063-1.433594 13.878906-4.300781 20.191407-13.730469 72.15625-50.9375 118.539063-99.730469 58.492187-61.527344 88.101562-119.648437 88.003906-172.742187-.039062-20.988282-5.507812-41.738282-15.808594-60.007813zm-187.835937 161.683594h16.328125c1.375 0 2.496094 1.121093 2.496094 2.496093v85.519532c0 1.378906-1.121094 2.5-2.496094 2.5h-16.328125c-1.375 0-2.496094-1.121094-2.496094-2.5v-85.519532c0-1.375 1.121094-2.496093 2.496094-2.496093zm-38.804688-15.425781c0-1.375 1.117188-2.496094 2.496094-2.496094h16.324219c1.378906 0 2.5 1.121094 2.5 2.496094v121.363281c0 1.375-1.121094 2.496093-2.5 2.496093h-16.324219c-1.378906 0-2.496094-1.121093-2.496094-2.496093zm-196.933593 121.363281c0 1.378906-1.121094 2.5-2.496094 2.5h-16.328125c-1.375 0-2.496094-1.121094-2.496094-2.5v-59.253907c0-4.136718-3.355469-7.492187-7.496094-7.492187-4.136719 0-7.492187 3.355469-7.492187 7.492187v41.332032c0 1.378906-1.121094 2.5-2.5 2.5h-16.324219c-1.375 0-2.496094-1.121094-2.496094-2.5v-85.519532c0-1.375 1.121094-2.496093 2.496094-2.496093h16.328125c1.375 0 2.496094 1.121093 2.496094 2.496093v9.207032c0 4.140625 3.355468 7.492187 7.496094 7.492187 4.136718 0 7.492187-3.351562 7.492187-7.492187v-27.128906c0-1.375 1.121094-2.496094 2.5-2.496094h16.324219c1.375 0 2.496094 1.121094 2.496094 2.496094zm0 0"/></svg>