<?xml version="1.0" ?><svg viewBox="0 0 64 64" xmlns="http://www.w3.org/2000/svg"><defs><style>.cls-1{fill:#ccc;}.cls-2{fill:#e6e6e6;}.cls-3{fill:#75acb7;}.cls-4{fill:#9ce5f4;}.cls-5{fill:#a4653d;}.cls-6{fill:#bb8b6d;}.cls-7{fill:#999;}.cls-8{fill:#b3b3b3;}</style></defs><title/><g data-name="Layer 24" id="Layer_24"><rect class="cls-1" height="38" width="56" x="4" y="24"/><rect class="cls-2" height="38" width="53" x="4" y="24"/><rect class="cls-3" height="10" width="16" x="8" y="28"/><rect class="cls-4" height="10" width="16" x="24" y="28"/><rect class="cls-3" height="10" width="16" x="40" y="28"/><rect class="cls-5" height="20" width="12" x="20" y="42"/><rect class="cls-6" height="20" width="9" x="20" y="42"/><rect class="cls-5" height="20" width="12" x="32" y="42"/><rect class="cls-6" height="20" width="9" x="32" y="42"/><rect class="cls-7" height="14" width="60" x="2" y="10"/><rect class="cls-8" height="14" width="57" x="2" y="10"/><rect class="cls-5" height="16" width="34" x="15" y="2"/><rect class="cls-6" height="16" width="31" x="15" y="2"/><path class="cls-2" d="M25,15H19a1,1,0,0,1-1-1V6a1,1,0,0,1,1-1h7V7H20v6h4V11H22V9h3a1,1,0,0,1,1,1v4A1,1,0,0,1,25,15Z"/><path class="cls-2" d="M32,11a4,4,0,0,1-4-4V5h2V7a2,2,0,0,0,4,0V5h2V7A4,4,0,0,1,32,11Z"/><rect class="cls-2" height="5" width="2" x="31" y="10"/><path class="cls-2" d="M46,15H44V10.24l-1.11,2.21a1,1,0,0,1-1.78,0L40,10.24V15H38V6a1,1,0,0,1,1.89-.45L42,9.76l2.11-4.21A1,1,0,0,1,46,6Z"/><rect class="cls-2" height="2" transform="translate(-19.53 18.86) rotate(-45)" width="5.66" x="10.17" y="32"/><rect class="cls-2" height="2" transform="translate(-17.77 23.1) rotate(-45)" width="5.66" x="16.17" y="32"/><rect class="cls-2" height="2" transform="translate(-14.84 30.17) rotate(-45)" width="5.66" x="26.17" y="32"/><rect class="cls-2" height="2" transform="translate(-13.08 34.41) rotate(-45)" width="5.66" x="32.17" y="32"/><rect class="cls-2" height="2" transform="translate(-10.15 41.49) rotate(-45)" width="5.66" x="42.17" y="32"/><rect class="cls-2" height="2" transform="translate(-8.4 45.73) rotate(-45)" width="5.66" x="48.17" y="32"/><rect class="cls-2" height="4" width="2" x="27" y="49"/><rect class="cls-2" height="4" width="2" x="35" y="49"/></g></svg>