<?xml version="1.0" ?><svg height="256" viewBox="0 0 256 256" width="256" xmlns="http://www.w3.org/2000/svg"><title/><g id="heart-beat-pulse"><g><path d="M211.37,130l-9.5,24.72A2.006,2.006,0,0,1,200,156h-.03a2,2,0,0,1-1.86-1.33l-16.38-46.43-6.92,14.62A2.017,2.017,0,0,1,173,124h-5.89l-9.41,15.06a1.957,1.957,0,0,1-1.87.93,1.979,1.979,0,0,1-1.68-1.24L133.87,88.98l-14.06,29.87A2.009,2.009,0,0,1,118,120h-6.25L97.8,148.87A2.023,2.023,0,0,1,96.09,150a1.993,1.993,0,0,1-1.8-.97L82.87,130H72a2,2,0,0,1-1.71-.97L59.98,111.86,49.46,129.04a2,2,0,0,1-1.71.96H34.02a94,94,0,0,0,187.96,0H211.37ZM182,166a2,2,0,0,1,4,0v16a2,2,0,0,1-4,0Zm-14,8a2,2,0,0,1,4,0v8a2,2,0,0,1-4,0Zm-14-8a2,2,0,0,1,4,0v16a2,2,0,0,1-4,0Zm-14,8a2,2,0,0,1,4,0v8a2,2,0,0,1-4,0Zm-14-8a2,2,0,0,1,4,0v16a2,2,0,0,1-4,0Zm-14,8a2,2,0,0,1,4,0v8a2,2,0,0,1-4,0Zm-14-8a2,2,0,0,1,4,0v16a2,2,0,0,1-4,0Zm-14,8a2,2,0,0,1,4,0v8a2,2,0,0,1-4,0Zm-14-8a2,2,0,0,1,4,0v16a2,2,0,0,1-4,0Z"/><path d="M242,122a5.981,5.981,0,0,0-5.65,4h-4.37a103.675,103.675,0,0,0-14.07-50.27l10.41-10.24a18.9,18.9,0,0,0,0-27.01,19.606,19.606,0,0,0-27.36,0L195,44.35l-5.96-5.87a19.5,19.5,0,0,0-17.88-5.1A102.766,102.766,0,0,0,128,24,104.118,104.118,0,0,0,24.02,126H19.65a6,6,0,1,0,0,4h4.37a104,104,0,0,0,207.96,0h4.37a6,6,0,1,0,5.65-8ZM186.23,41.34l7.37,7.24a1.986,1.986,0,0,0,2.8,0l7.37-7.24a15.564,15.564,0,0,1,21.74,0,14.864,14.864,0,0,1,0,21.29L213.94,74.01l-7.32,7.21L195,92.65,164.49,62.63a14.856,14.856,0,0,1-1.77-19.21,15.114,15.114,0,0,1,1.77-2.08,15.3,15.3,0,0,1,7.02-3.95,15.619,15.619,0,0,1,3.85-.48A15.438,15.438,0,0,1,186.23,41.34ZM110,94v4H74V94ZM74,82V78h36v4Zm54,146a100.12,100.12,0,0,1-99.98-98c-.01-.67-.02-1.33-.02-2s.01-1.33.02-2A100.12,100.12,0,0,1,128,28a98.925,98.925,0,0,1,37.8,7.4,19.012,19.012,0,0,0-4.12,3.08c-.42.42-.82.85-1.19,1.29A94.056,94.056,0,0,0,34.02,126H46.63l11.66-19.04A2,2,0,0,1,60,106h.01a1.969,1.969,0,0,1,1.7.97L73.13,126H84a2,2,0,0,1,1.71.97l10.1,16.83,12.89-26.67a1.993,1.993,0,0,1,1.8-1.13h6.23l15.46-32.85a2,2,0,0,1,3.66.1l20.53,50.37,7.92-12.68A2.023,2.023,0,0,1,166,120h5.73l8.46-17.86A2.043,2.043,0,0,1,182.1,101a2.011,2.011,0,0,1,1.79,1.33l16.19,45.89,8.05-20.94A2.006,2.006,0,0,1,210,126h11.98a93.956,93.956,0,0,0-11.45-43.02l4.43-4.35A99.533,99.533,0,0,1,227.98,126c.01.67.02,1.33.02,2s-.01,1.33-.02,2A100.12,100.12,0,0,1,128,228Z"/></g></g></svg>