<?xml version="1.0" encoding="iso-8859-1"?>
<!-- Generator: Adobe Illustrator 18.0.0, SVG Export Plug-In . SVG Version: 6.00 Build 0)  -->
<!DOCTYPE svg PUBLIC "-//W3C//DTD SVG 1.1//EN" "http://www.w3.org/Graphics/SVG/1.1/DTD/svg11.dtd">
<svg version="1.1" id="Capa_1" xmlns="http://www.w3.org/2000/svg" xmlns:xlink="http://www.w3.org/1999/xlink" x="0px" y="0px"
	 viewBox="0 0 288.488 288.488" style="enable-background:new 0 0 288.488 288.488;" xml:space="preserve">
<g>
	<path style="fill:#231F20;" d="M288.488,93.996V7.5c0-4.135-3.365-7.5-7.5-7.5H7.5C3.364,0,0,3.365,0,7.5v273.488
		c0,4.135,3.364,7.5,7.5,7.5h273.488c4.135,0,7.5-3.365,7.5-7.5v-86.496c0-4.136-3.365-7.5-7.5-7.5h-20c-4.136,0-7.5,3.364-7.5,7.5
		v58.996H35V35h218.488v58.996c0,4.136,3.364,7.5,7.5,7.5h20C285.123,101.496,288.488,98.132,288.488,93.996z"/>
	<path style="fill:#231F20;" d="M174.787,206.302l14.142,14.143c1.417,1.417,3.3,2.197,5.303,2.197c2.003,0,3.886-0.78,5.303-2.197
		l70.899-70.898c1.417-1.417,2.196-3.3,2.196-5.303s-0.78-3.886-2.197-5.303l-70.898-70.898c-1.417-1.416-3.3-2.196-5.303-2.196
		c-2.003,0-3.887,0.78-5.304,2.197l-14.141,14.143c-1.417,1.416-2.197,3.3-2.197,5.303c0,2.003,0.78,3.887,2.197,5.303
		l33.952,33.952H100.988c-4.136,0-7.5,3.364-7.5,7.5v20c0,4.136,3.364,7.5,7.5,7.5h107.751l-33.952,33.952
		C171.863,198.62,171.863,203.378,174.787,206.302z"/>
</g>
<g>
</g>
<g>
</g>
<g>
</g>
<g>
</g>
<g>
</g>
<g>
</g>
<g>
</g>
<g>
</g>
<g>
</g>
<g>
</g>
<g>
</g>
<g>
</g>
<g>
</g>
<g>
</g>
<g>
</g>
</svg>
