<svg id="_x33_0" enable-background="new 0 0 64 64" height="512" viewBox="0 0 64 64" width="512" xmlns="http://www.w3.org/2000/svg"><g><g><g><path d="m10 10v1.93.07h-4v-4h4z" fill="#aab2bd"/></g><g><path d="m26 8v4h-4.03c.02-.17.03-.34.03-.51v-3.49z" fill="#aab2bd"/></g><g><path d="m6 12v5c0 .55-.45 1-1 1h-2c-.55 0-1-.45-1-1v-14c0-.55.45-1 1-1h2c.55 0 1 .45 1 1v5z" fill="#969faa"/></g><g><path d="m30 3v14c0 .55-.45 1-1 1h-2c-.55 0-1-.45-1-1v-5-4-5c0-.55.45-1 1-1h2c.55 0 1 .45 1 1z" fill="#969faa"/></g><g><path d="m35.71 56.15c-1.05.52-1.71 1.59-1.71 2.76v-7.06c0-1.87-.44-3.72-1.28-5.4l-1.21-3.28c-.34-1.31-.51-2.67-.51-4.03 0-2.07.4-4.13 1.17-6.06.23-.59.63-1.09 1.12-1.43.55-.42 1.23-.65 1.95-.65h.76v2.14c0 1.06.43 2.03 1.13 2.73s1.67 1.13 2.73 1.13c1.33 0 2.57-.69 3.27-1.81l2.4-3.84c.43-.69 1.01-1.24 1.69-1.64.04-.03.09-.06.13-.08.73-.41 1.56-.63 2.42-.63 1.46 0 2.89.4 4.14 1.15.87.52 1.66 1.14 2.37 1.85h-1.67c-2.88 0-5.57 1.44-7.16 3.83-.95 1.42-1.45 3.08-1.45 4.78 0 1.36.36 2.67 1.01 3.82s1.59 2.13 2.76 2.83l1.23.74-7 6-2.61-.87c-.26-.09-.53-.13-.81-.13-.97 0-1.85.55-2.29 1.42l-.29.58z" fill="#4fc1e9"/></g><g><path d="m56 14.82c0 2.42-.81 4.68-2.2 6.5s-3.36 3.2-5.69 3.83l-3.11.85v-4l2.38-2.38c.4-.4.62-.94.62-1.5 0-1.17-.95-2.12-2.12-2.12h-.88v-.4c0-2.15-1.38-4.06-3.42-4.74l-1.97-.66c1.61-2.61 4.45-4.2 7.53-4.2h.04c4.87 0 8.82 3.95 8.82 8.82z" fill="#b27946"/></g><g><path d="m18 8v2c0 1.1-.9 2-2 2h-4c-1.1 0-2-.9-2-2v-2c0-1.1.9-2 2-2h4c1.1 0 2 .9 2 2z" fill="#f0d0b4"/></g><g><path d="m60.97 45.46c.67 1 1.03 2.19 1.03 3.39 0 2.49-1.57 4.7-3.91 5.53l-13.09 4.62-4.29 2.15c-1.13.56-2.36.85-3.62.85-.85 0-1.63-.34-2.19-.9s-.9-1.34-.9-2.19c0-1.17.66-2.24 1.71-2.76l2.29-1.15.29-.58c.44-.87 1.32-1.42 2.29-1.42.28 0 .55.04.81.13l2.61.87 7-6-1.23-.74c-1.17-.7-2.11-1.68-2.76-2.83s-1.01-2.46-1.01-3.82c0-1.7.5-3.36 1.45-4.78 1.59-2.39 4.28-3.83 7.16-3.83h1.67c.94.93 1.73 2.02 2.33 3.22.91 1.83 1.39 3.84 1.39 5.89v2.89z" fill="#f0d0b4"/></g><g><path d="m32.68 31.34.6.3.01.01c-.49.34-.89.84-1.12 1.43-.77 1.93-1.17 3.99-1.17 6.06 0 1.36.17 2.72.51 4.03h-.01l-1.34.44c-.77.26-1.57.39-2.39.39-1.34 0-2.63-.36-3.76-1.02l-.01.02-5.58-.47c-3.63-.3-6.42-3.33-6.42-6.97v-19.56l-.54-.54c-.91-.91-1.44-2.16-1.46-3.46 0-.02 0-.05 0-.07v-1.93c0 1.1.9 2 2 2h4c1.1 0 2-.9 2-2v-2-1c0-1.66 1.34-3 3-3 .55 0 1 .45 1 1v3 3.49c0 .17-.01.34-.03.51-.08.8-.36 1.58-.81 2.26l-1.16 1.74v13.76c0 .71.08 1.42.24 2.12l1.08-.54c1.76-.88 3.71-1.34 5.68-1.34s3.92.46 5.68 1.34z" fill="#f0d0b4"/></g><g><path d="m47.22 29.71c-.68.4-1.26.95-1.69 1.64l-2.4 3.84c-.7 1.12-1.94 1.81-3.27 1.81-1.06 0-2.03-.43-2.73-1.13s-1.13-1.67-1.13-2.73v-2.14l1.59-1.59c.9-.9 1.41-2.13 1.41-3.41v-.01c-2.78-.08-5-2.35-5-5.15 0-.56.09-1.11.26-1.63l.74-2.21-.51-.51c-.31-.31-.49-.74-.49-1.18 0-.77.52-1.44 1.27-1.63l1.07-.27c1.06-.26 1.97-.95 2.51-1.89l.6-1.06c.05-.09.1-.17.16-.26l1.97.66c2.04.68 3.42 2.59 3.42 4.74v.4h.88c1.17 0 2.12.95 2.12 2.12 0 .56-.22 1.1-.62 1.5l-2.38 2.38v4 .12c0 1.53.87 2.91 2.22 3.58z" fill="#f0d0b4"/></g></g><path d="m61.804 44.902-.804-1.205v-2.591c0-2.187-.517-4.376-1.494-6.332-1.14-2.277-2.896-4.175-5.08-5.485-1.407-.844-3.016-1.289-4.655-1.289-.888 0-1.737.202-2.512.558-.615-.436-1.033-1.081-1.187-1.814l2.296-.626c5.082-1.387 8.632-6.033 8.632-11.301 0-5.413-4.404-9.817-9.859-9.817-3.529 0-6.809 1.903-8.56 4.967l-.603 1.055c-.403.707-1.088 1.225-1.877 1.422l-1.077.27c-1.191.297-2.024 1.364-2.024 2.593 0 .714.278 1.386.783 1.891l.072.073-.54 1.619c-.209.631-.315 1.286-.315 1.948 0 2.961 2.1 5.44 4.889 6.028-.162.69-.505 1.336-1.01 1.841l-1.293 1.293h-.346c-.718 0-1.399.182-2.004.5l-.105-.053c-3.731-1.866-8.339-1.883-12.095-.071-.015-.204-.036-.408-.036-.612v-13.461l.992-1.488c.373-.559.634-1.174.802-1.814h2.206v4c0 1.103.897 2 2 2h2c1.103 0 2-.897 2-2v-14.001c0-1.103-.897-2-2-2h-2c-1.103 0-2 .897-2 2v4h-2v-2c0-1.103-.897-2-2-2-1.609 0-3 .955-3.634 2.329-.41-.21-.875-.329-1.366-.329h-4c-1.302 0-2.402.839-2.816 2h-2.184v-4c0-1.103-.897-2-2-2h-2c-1.103 0-2 .897-2 2v14c0 1.103.897 2 2 2h2c1.103 0 2-.897 2-2v-4h2.099c.214 1.195.782 2.295 1.659 3.172l.242.242v19.145c0 4.128 3.223 7.63 7.336 7.973l5.426.452c1.224.651 2.599 1.016 4.012 1.016.921 0 1.831-.147 2.703-.438l.36-.12c.269.841.596 1.664.991 2.454.768 1.53 1.172 3.244 1.172 4.958v7.057c0 2.255 1.835 4.09 4.09 4.09 1.405 0 2.812-.332 4.065-.96l4.236-2.118 13.032-4.599c2.738-.968 4.577-3.567 4.577-6.47 0-1.412-.414-2.779-1.196-3.952zm-34.804-41.902h2l.002 14h-2.002zm-2 6v2h-2v-2zm22.183-2c4.31 0 7.817 3.507 7.817 7.817 0 4.368-2.943 8.222-7.157 9.371l-1.843.503v-2.277l2.086-2.086c.581-.581.914-1.385.914-2.207 0-1.69-1.351-3.071-3.03-3.12-.233-2.334-1.811-4.335-4.072-5.089l-.656-.219c1.476-1.682 3.623-2.693 5.941-2.693zm-10.183 24.414 1.293-1.293c.847-.847 1.407-1.949 1.614-3.121h2.093v-2h-2.838c-2.295 0-4.162-1.867-4.162-4.162 0-.447.072-.891.213-1.316l.932-2.792-.947-.946c-.126-.127-.198-.3-.198-.477 0-.31.21-.579.51-.653l1.076-.27c1.316-.328 2.456-1.192 3.129-2.37l.346-.606 1.204.401c1.635.545 2.735 2.07 2.735 3.795v1.396h1.879c.618 0 1.121.503 1.121 1.121 0 .295-.119.584-.328.793l-2.672 2.672v4.531c0 1.401.576 2.694 1.555 3.62-.325.323-.621.681-.871 1.082l-2.398 3.837c-.526.841-1.432 1.344-2.426 1.344-1.577 0-2.86-1.283-2.86-2.86zm-26-23.414c0-.552.448-1 1-1h4c.552 0 1 .448 1 1v2c0 .552-.448 1-1 1h-4c-.552 0-1-.448-1-1zm-8 9v-14h2l.002 14zm4-8h2v1 1h-2zm22.846 33.664c-.669.223-1.366.336-2.072.336-2.05 0-4.009-.979-5.239-2.619l-.735-.981-1.6 1.2.735.981c.046.061.099.114.147.173l-2.58-.215c-3.085-.258-5.502-2.885-5.502-5.98v-19.973l-.828-.828c-.532-.532-.885-1.191-1.053-1.905.28.087.572.147.881.147h4c1.654 0 3-1.346 3-3v-3c0-1.103.897-2 2-2v6.486c0 .793-.232 1.56-.672 2.219l-1.328 1.992v14.066c0 1.616.382 3.235 1.105 4.684l1.789-.895c-.185-.37-.332-.758-.461-1.152l.33-.165c3.035-1.518 6.746-1.592 9.863-.259-.148.23-.283.471-.388.732-.821 2.057-1.238 4.223-1.238 6.437 0 1.126.118 2.251.337 3.356zm2.154-3.519c0-1.959.369-3.874 1.097-5.692.322-.805 1.057-1.327 1.903-1.416v1.104c0 2.68 2.181 4.86 4.86 4.86 1.688 0 3.229-.854 4.121-2.284l2.397-3.836c.736-1.177 2.004-1.88 3.393-1.88 1.276 0 2.529.348 3.625 1.004.033.02.066.04.099.06-2.786.322-5.304 1.847-6.882 4.214-1.055 1.582-1.613 3.424-1.613 5.326 0 3.061 1.63 5.938 4.254 7.513l.042.025-5.517 4.729-2.066-.688c-.363-.122-.743-.184-1.129-.184-1.358 0-2.58.755-3.187 1.969l-.143.286-1.994.996c-.091.046-.174.102-.261.154v-3.551c0-2.022-.478-4.047-1.382-5.853-1.057-2.117-1.617-4.488-1.617-6.856zm25.758 14.292-13.091 4.62-4.407 2.194c-.978.49-2.073.749-3.17.749-1.152 0-2.09-.937-2.09-2.09 0-.797.442-1.514 1.155-1.87l2.59-1.294.441-.882c.267-.533.802-.864 1.398-.864.169 0 .335.026.494.08l3.143 1.048 8.483-7.271-2.421-1.453c-2.025-1.216-3.283-3.437-3.283-5.799 0-1.506.441-2.965 1.277-4.219 1.414-2.12 3.78-3.386 6.328-3.386h1.259c.737.792 1.362 1.688 1.853 2.669.84 1.68 1.283 3.56 1.283 5.438v3.196l1.14 1.709c.563.844.86 1.827.86 2.843 0 2.056-1.303 3.897-3.242 4.582z"/></g></svg>