<?xml version="1.0" ?><svg height="256" viewBox="0 0 256 256" width="256" xmlns="http://www.w3.org/2000/svg"><title/><g id="vitamin-suplement-nutrition-fruits"><g><path d="M235.911,216.09,223.19,203.37,210.45,190.64a14,14,0,0,0-19.791,19.8l1.56,1.56h-9.051a21.574,21.574,0,0,0,.84-6V82a22.038,22.038,0,0,0-20-21.91V48h2a10.017,10.017,0,0,0,10-10V26a10.017,10.017,0,0,0-10-10H34A10.017,10.017,0,0,0,24,26V38A10.017,10.017,0,0,0,34,48h2V60.09A22.038,22.038,0,0,0,16,82V206a22.027,22.027,0,0,0,22,22H152.147a14.027,14.027,0,0,0,13.861,12h36a13.986,13.986,0,0,0,11.771-6.43l2.33,2.34a14.008,14.008,0,0,0,19.8-19.82ZM20,96H180.008v98H20ZM160.007,48V60H40V48ZM20,82A18.028,18.028,0,0,1,38,64H162.007a18.028,18.028,0,0,1,18,18V92H20Zm0,124v-8H180.008v8a17.931,17.931,0,0,1-1.03,6H166.008a14.027,14.027,0,0,0-13.861,12H38A18.028,18.028,0,0,1,20,206Zm182.009,30h-16V216h16a10,10,0,1,1,0,20Zm31.082-2.93a10.032,10.032,0,0,1-14.161.01l-3.41-3.41a13.951,13.951,0,0,0-2.96-12.85l9.21-9.21,11.311,11.31A10.028,10.028,0,0,1,233.091,233.07Z"/><path d="M143.516,127.58c-.07-.08-.14-.15-.21-.22h-.01c-2.1-2.1-6.51-3.68-15.591.66a66.617,66.617,0,0,0-12.581,8.16,36.711,36.711,0,0,0-30.142-19.49c.01-.16.02-.33.02-.5,6.6-.48,11.41-2.35,14.3-5.56a9.766,9.766,0,0,0,2.7-6.76,2.047,2.047,0,0,0-.69-1.38,1.993,1.993,0,0,0-1.46-.48c-8.9.68-14.111,4.56-16.5,6.92a27.626,27.626,0,0,0-1.74-3.25,2,2,0,1,0-3.39,2.12c2.62,4.19,2.9,7.26,2.78,8.85a36.694,36.694,0,1,0,19,69,36.7,36.7,0,0,0,43.572-58.01A.34.34,0,0,1,143.516,127.58Zm-14.091,4.05c3.57-1.7,6.25-2.34,8.141-2.34a4.045,4.045,0,0,1,2.91.9c1.25,1.25,1.53,4.81-1.45,11.04-5.45,11.41-18.381,24.91-30.142,31.82a.4.4,0,0,1-.09.05c-1.19.7-2.36,1.33-3.52,1.88-6.23,2.98-9.791,2.7-11.041,1.44s-1.53-4.81,1.44-11.04c3.01-6.3,8.3-13.24,14.411-19.35,1.75-1.75,3.56-3.43,5.41-5l.44-.38A65.568,65.568,0,0,1,129.426,131.63ZM82.653,186a32.7,32.7,0,1,1,29.321-47.17c-8.38,7.37-15.981,16.61-19.911,24.83-4.34,9.09-2.76,13.5-.66,15.59.07.07.14.14.22.21A34.631,34.631,0,0,0,96,183.15,32.539,32.539,0,0,1,82.653,186Z"/><path d="M115.355,153.42a.832.832,0,0,0,.03.22.12.12,0,0,0,.02.08.834.834,0,0,0,.07.26,1.035,1.035,0,0,0,.14.3.586.586,0,0,0,.1.17.284.284,0,0,0,.09.1.7.7,0,0,0,.13.17.176.176,0,0,0,.05.04,1.84,1.84,0,0,0,.61.4,2.094,2.094,0,0,0,.76.14h.11a.341.341,0,0,0,.1-.01,1.251,1.251,0,0,0,.19-.03,1.7,1.7,0,0,0,.45-.15,1.555,1.555,0,0,0,.25-.14c.02-.01.04-.03.07-.05,4.95-3.27,20.761-14.16,21.361-20.1a3.616,3.616,0,0,0-4.04-4.05c-1.82.18-4.12,1.81-6.52,4.11a.341.341,0,0,0-.1-.01,12.3,12.3,0,0,0-9.291,3.76C114.895,143.97,115.335,153.03,115.355,153.42Z"/><ellipse cx="69.873" cy="131.393" rx="1.83" ry="1.825"/><path d="M69.873,136.87a1.825,1.825,0,1,0,1.83,1.83A1.831,1.831,0,0,0,69.873,136.87Z"/><circle cx="64.395" cy="135.043" r="1.825"/><path d="M59.712,136.98c-.43.26-10.4,6.5-4.54,26.03a2.007,2.007,0,0,0,1.92,1.43,1.885,1.885,0,0,0,.57-.09A2,2,0,0,0,59,161.86c-4.89-16.3,2.43-21.23,2.79-21.46a2,2,0,0,0-2.08-3.42Z"/></g></g></svg>